<svg width="600" height="600" viewBox="20 20 160 160" xmlns="http://www.w3.org/2000/svg">
  <defs>
    <style>
      .sparkle { fill: white ; stroke: white; stroke-width: 3; stroke-linecap: round; stroke-linejoin: round; }
      .wave { fill: none; stroke: white; stroke-width: 8; stroke-linecap: round; }
    </style>
  </defs>
  
  <rect x="0" y="0" width="600" height="600" fill="#001f3f"/>
  <g transform="translate(15, 15)">
    <path class="sparkle" d="M100 0 
                             Q 100 20, 120 20 
                             Q 100 20, 100 40 
                             Q 100 20, 80 20 
                             Q 100 20, 100 0 z" transform="rotate(20, 70, 0)" />
    <path class="sparkle" d="M100 40 
                             Q 100 80, 140 80 
                             Q 100 80, 100 120 
                             Q 100 80, 60 80 
                             Q 100 80, 100 40 z" transform="rotate(20, 100, 60)" />
    <path class="sparkle" d="M50 30 
                             Q 50 50, 70 50 
                             Q 50 50, 50 70 
                             Q 50 50, 30 50 
                             Q 50 50, 50 30 z" transform="rotate(20, 60, 40)" />
    <path class="sparkle" d="M150 40 
                             Q 150 55, 165 55 
                             Q 150 55, 150 70 
                             Q 150 55, 135 55 
                             Q 150 55, 150 40 z" transform="rotate(20, 120, 5)" />
    <path class="wave" d="M 60 130 Q 100 150 140 130" transform="translate(-15, -15)"/>
    <path class="wave" d="M 50 145 Q 100 170 150 145" transform="translate(-15, -15)"/>
    <path class="wave" d="M 40 160 Q 100 190 160 160" transform="translate(-15, -15)"/>
  </g>
  
</svg>
